<?xml version="1.0" encoding="UTF-8"?>
<svg id="Layer_1" xmlns="http://www.w3.org/2000/svg" width="1500" height="1500" version="1.1" viewBox="0 0 1500 1500">
  <!-- Generator: Adobe Illustrator 29.8.3, SVG Export Plug-In . SVG Version: 2.1.1 Build 3)  -->
  <path fill="white" d="M708.31,46.36c-91.46,7.71-148.17,23.55-199.3,55.69-95.82,60.23-162.04,181.18-167.11,305.27-2.24,54.96-12.28,69.65-57.13,83.65-21.07,6.58-28.45,14.78-28.45,31.65,0,13.25,40.29,165.33,47.75,180.24,7.69,15.37,12.59,17.4,45.66,18.86,34.72,1.53,35.7,2.07,66.69,37,85.94,96.87,216.42,140.39,366.01,122.09,187.97-22.99,292.49-190.55,260.86-418.16-12.09-86.93-43.09-115.73-144.54-134.3-56.05-10.26-204.35-13.24-272.6-5.48-93.39,10.62-132.41,29.96-154.19,76.44-20.59,43.95-20.99,149.48-.91,242.33,6.91,31.96,19.08,42.81,41.13,36.69,18.59-5.16,20.5-15.13,15.48-80.68-11.3-147.3-9.88-172.99,10.38-188.95,44.71-35.22,240.67-41.24,387.94-11.93,38.32,7.63,51.09,23.18,57.09,69.5,23.92,184.66-44.03,319.95-174.87,348.16-32.02,6.9-95.17,9.38-133.04,5.21-106.49-11.73-171.5-42.34-213.97-100.75-39.27-54.02-62.62-67.17-100.99-56.85-4.8,1.29-6.52,1.37-6.88.3-1.92-5.7-30.79-120.47-30.4-120.86.27-.27,13.74-5.88,29.92-12.45,46.71-18.97,43.88-14.17,48.75-82.65,9.39-132.18,35.84-202.16,99.21-262.46,111.73-106.32,357.02-107.09,479.67-1.5,72.74,62.63,117.14,172.25,117.14,289.22,0,36.18,3.67,41.7,35.19,52.94,28.15,10.03,46.65,17.73,46.16,19.2-.26.79-6.55,27.19-13.97,58.68-7.42,31.49-13.73,57.52-14.02,57.85-.29.33-10.65.6-23.03.6-36.22,0-43.94,6.19-63.1,50.51-81.76,189.14-260.14,263.4-492.15,204.87-43.69-11.02-44.56-10.37-64.63,47.9-36.68,106.47-36.84,105.71,27.07,122.23,126.36,32.66,268.58,29.78,394.22-7.98,71.89-21.6,92.15-37.94,79.84-64.38-9.12-19.59-17.82-20.18-65.27-4.4-91.81,30.52-186.4,43.41-276.62,37.67-27.73-1.76-113.61-14.49-116.37-17.25-.29-.29,1.38-6.18,3.72-13.09,2.33-6.91,5.08-16.18,6.09-20.6,3.54-15.43,7.23-16.77,37.82-13.74,157.73,15.6,204.71,13.92,274.23-9.82,108.45-37.03,181.89-104.69,241.11-222.15,14.61-28.98,11.47-26.92,42.07-27.68,39.79-.99,45.06-5.49,54.33-46.4,2.4-10.6,10.83-47.04,18.72-80.96,22.49-96.62,23.73-92.47-33.81-113-35.39-12.63-35.91-13.09-37.59-34.2-5.04-63.03-11.62-98.8-25.81-140.31-52.23-152.82-161.22-238.97-328.32-259.52-15.4-1.89-81.04-3.45-95.22-2.25"/>
  <g fill="white">
    <g>
      <path d="M44.27,1451.53c4.99-8.09,9.52-15.46,14.08-22.81,20.83-33.61,41.71-67.18,62.43-100.85,1.86-3.03,3.77-4.18,7.36-4.15,20.52.19,41.05.16,61.57.03,3.33-.02,4.57.7,4.56,4.34-.13,39.75-.11,79.49-.02,119.24,0,3.18-.79,4.38-4.14,4.29-8.08-.22-16.17-.23-24.25,0-3.54.1-4.91-.78-4.75-4.61.31-7.47-.08-14.97.16-22.44.11-3.57-.8-4.84-4.61-4.8-17.26.2-34.52,0-51.78.23-1.85.02-4.36,1.5-5.4,3.08-5.49,8.31-10.54,16.9-15.89,25.3-.82,1.29-2.37,2.99-3.62,3.01-11.6.23-23.21.14-35.69.14ZM139.38,1392.96c6.06,0,12.12-.02,18.18.01,2,.01,3.67,0,3.65-2.83-.08-12.15.03-24.3-.15-36.45-.01-.95-1.61-2.6-2.57-2.67-4.02-.31-8.08-.31-12.1-.04-1.28.09-2.95,1.06-3.64,2.14-7.73,12.23-15.26,24.58-22.96,36.83-1.72,2.73-.63,3.06,1.87,3.03,5.9-.07,11.81-.02,17.71-.02Z"/>
      <path d="M203.55,1387.64c0-19.71.05-39.43-.05-59.14-.01-2.86.22-4.51,4.3-4.48,31.81.18,63.63-.11,95.44.39,7.4.12,15.2,1.77,22.04,4.37,27.79,10.54,36.57,41.07,18.37,62.7-1.93,2.3-2.05,3.58,0,5.82,6.3,6.86,8.7,15.14,9.12,23.79.43,8.99.1,18,.26,27,.04,2.41-.85,3.28-3.56,3.25-9.34-.1-18.68-.15-28.01.03-3.44.07-3.95-1.32-3.9-3.91.14-6.67.14-13.35,0-20.02-.06-2.93-.28-5.92-.95-8.78-1.44-6.21-6.1-9.48-14.48-9.63-14.69-.28-29.39-.19-44.08-.24-4.84-.02-9.69.18-14.52-.06-3.62-.18-4.75.93-4.69,4.19.19,11.33-.07,22.67.16,33.99.07,3.41-.9,4.61-4.88,4.49-8.46-.27-16.95-.25-25.41,0-3.95.11-5.31-.8-5.26-4.59.22-19.71.1-39.43.1-59.14ZM272.02,1379.27c8.81,0,17.62.11,26.42-.06,3.06-.06,6.23-.44,9.13-1.29,5.89-1.73,9.23-5.95,9.39-11.06.17-5.41-2.95-9.81-8.86-11.9-2.37-.83-5-1.44-7.52-1.46-19.34-.12-38.69-.02-58.03-.12-3.15-.02-3.73,1.21-3.68,3.65.13,6.2.18,12.41-.02,18.6-.09,2.87.98,3.74,4.15,3.69,9.67-.16,19.34-.06,29.01-.06Z"/>
      <path d="M1137.45,1387.73c0-35.35-33.6-64.01-75.05-64.01s-75.05,28.66-75.05,64.01,33.6,64.01,75.05,64.01,75.05-28.66,75.05-64.01ZM1020.9,1388.17c0-18.94,20.37-36.2,41.5-36.2s42.38,17.26,42.38,36.2-21.25,35.32-42.38,35.32-41.5-16.38-41.5-35.32Z"/>
      <path d="M1296.18,1388.1c0,19.65-.11,39.3.09,58.95.04,3.94-1.46,4.56-4.87,4.53-16.18-.14-32.36-.15-48.54.01-3.07.03-4.66-.97-6.15-3.66-16.82-30.38-33.79-60.69-50.72-91.01-.6-1.08-1.09-2.65-2.02-3.02-1.47-.59-3.39-.76-4.87-.31-.65.2-.99,2.37-.99,3.64-.05,29.63-.13,59.27.05,88.9.03,4.21-.95,5.7-5.35,5.49-7.61-.37-15.24-.21-22.86-.05-2.81.06-3.77-.8-3.76-3.7.08-40.08.08-80.16,0-120.25,0-3.09,1.01-3.96,4-3.94,16.64.12,33.29.15,49.94-.03,3.11-.03,4.31,1.51,5.6,3.83,16.61,29.96,33.29,59.9,49.96,89.83.75,1.35,1.33,3.16,2.52,3.83,1.32.75,3.43.94,4.82.4.82-.32,1.27-2.52,1.27-3.88.07-29.48.16-58.95-.06-88.43-.03-4.61,1.27-5.83,5.71-5.6,7.29.37,14.63.29,21.93.02,3.61-.13,4.41,1.17,4.38,4.55-.14,19.96-.07,39.93-.07,59.89Z"/>
      <path d="M1418.46,1382.04c10.9,0,21.81.15,32.7-.09,3.64-.08,4.52,1.06,4.33,4.29-.35,6.21.24,12.5-.58,18.64-2.22,16.7-11.76,29.18-27.43,36.31-29.2,13.29-59.22,13.64-88.27.03-24.02-11.26-34.62-31.26-33.75-56.41.88-25.75,14.14-44.37,39.1-54.11,26.34-10.28,53.3-9.76,79.57.72,15.41,6.15,26.1,16.89,29.99,32.93.9,3.69.33,5.29-4.31,5.06-8.08-.4-16.19-.02-24.29-.2-1.35-.03-3.44-.89-3.88-1.89-3.89-8.85-11.25-13.6-20.5-16.05-11.8-3.13-23.72-3.3-35.5-.06-18.79,5.17-29.05,19.51-27.96,38.66,1.04,18.3,13.58,31.42,33.37,34.61,11.54,1.86,22.97,1.38,34.07-2.47,6.64-2.3,12-6.15,15.58-12.08,1.75-2.89,1.9-4.33-2.52-4.23-10.74.24-21.49-.1-32.23.17-3.86.1-4.74-1.15-4.56-4.52.26-5.03.27-10.08,0-15.11-.17-3.25.73-4.36,4.35-4.28,10.9.24,21.8.09,32.7.09Z"/>
      <path d="M828.71,1387.57c0-19.71.05-39.43-.05-59.14-.01-2.86.22-4.51,4.3-4.48,31.81.18,63.63-.11,95.44.39,7.4.12,15.2,1.77,22.04,4.37,27.79,10.54,36.57,41.07,18.37,62.7-1.93,2.3-2.05,3.58,0,5.82,6.3,6.86,8.7,15.14,9.12,23.79.43,8.99.1,18,.26,27,.04,2.41-.85,3.28-3.56,3.25-9.34-.1-18.68-.15-28.01.03-3.44.07-3.95-1.32-3.9-3.91.14-6.67.14-13.35,0-20.02-.06-2.93-.28-5.92-.95-8.78-1.44-6.21-6.1-9.48-14.48-9.63-14.69-.28-29.39-.19-44.08-.24-4.84-.02-9.69.18-14.52-.06-3.62-.18-4.75.93-4.69,4.19.19,11.33-.07,22.67.16,33.99.07,3.41-.9,4.61-4.88,4.49-8.46-.27-16.95-.25-25.41,0-3.95.11-5.31-.8-5.26-4.59.22-19.71.1-39.43.1-59.14ZM897.18,1379.19c8.81,0,17.62.11,26.42-.06,3.06-.06,6.23-.44,9.13-1.29,5.89-1.73,9.23-5.95,9.4-11.06.17-5.41-2.95-9.82-8.86-11.9-2.37-.83-5-1.44-7.52-1.46-19.34-.12-38.69-.02-58.03-.12-3.15-.02-3.73,1.21-3.68,3.65.13,6.2.18,12.41-.02,18.6-.09,2.87.98,3.74,4.15,3.69,9.67-.16,19.34-.06,29.01-.06Z"/>
      <path d="M433.76,1413.79c.14.41.35.79.63,1.12.66.79,1.63,1.31,2.74,1.31,1.18,0,2.21-.58,2.86-1.46.19-.25.34-.52.46-.82,0-.01,0-.03.01-.04,10.36-18.59,20.73-37.18,31.1-55.77.75-1.35,1.33-3.15,2.52-3.82,1.32-.75,3.43-.93,4.82-.4.82.31,1.27,2.51,1.27,3.87.07,29.41.16,58.82-.06,88.23-.03,4.6,1.27,5.82,5.71,5.59,7.29-.37,14.63-.29,21.93-.02,3.61.13,4.41-1.17,4.38-4.54-.14-19.92-.07-39.84-.07-59.76s-.11-39.22.09-58.82c.04-3.93-1.46-4.55-4.87-4.52-16.18.14-32.36.15-48.54-.01-3.07-.03-4.66.96-6.15,3.65-4.03,7.26-8.08,14.51-12.13,21.76-.18.32-.36.65-.54.97-.65.84-1.66,1.39-2.81,1.39s-2.06-.51-2.72-1.28c-.22-.4-.44-.8-.66-1.19-4.05-7.27-8.1-14.54-12.14-21.81-1.29-2.31-2.49-3.86-5.6-3.83-16.64.17-33.29.14-49.94.03-2.99-.02-4.01.85-4,3.93.09,39.99.08,79.99,0,119.98,0,2.89.95,3.75,3.76,3.69,7.62-.16,15.26-.32,22.86.05,4.4.21,5.37-1.28,5.35-5.48-.18-29.57-.11-59.13-.05-88.7,0-1.27.34-3.44.99-3.63,1.49-.45,3.4-.28,4.87.31.93.37,1.41,1.94,2.02,3.02,10.63,18.99,21.26,37.99,31.87,56.99"/>
      <path d="M610.38,1323.66c15.34,0,30.68.11,46.02-.08,3.64-.04,4.74.97,4.59,4.47-.28,6.54-.31,13.12,0,19.66.18,3.64-1.16,4.35-4.66,4.34-27.77-.13-55.55-.19-83.32.04-4.39.04-9.17.84-13,2.74-2.63,1.31-4.88,4.91-5.6,7.87-.94,3.87,1.98,7.06,5.71,8.24,4.37,1.38,9.05,2.44,13.62,2.52,16.14.3,32.29.08,48.44.13,9.46.03,18.65,1.56,27.24,5.56,13.95,6.5,21.46,17.3,21.72,32.25.26,14.77-5.88,26.8-19.87,33.29-7.52,3.49-16.21,6.16-24.45,6.37-30.66.8-61.35.39-92.03.54-3.14.02-3.76-1.2-3.7-3.89.15-6.71.26-13.43-.03-20.13-.15-3.54.99-4.44,4.6-4.42,27.61.15,55.23.18,82.84-.02,4.25-.03,8.65-.97,12.68-2.32,4.2-1.41,6.82-4.64,6.72-9.33-.1-4.54-2.92-7.41-6.91-8.69-3.91-1.25-8.15-2.02-12.27-2.08-15.66-.23-31.33-.05-46.99-.11-10.77-.04-21.27-1.51-30.88-6.58-13.62-7.2-20.13-18.44-19.79-33.39.34-14.54,7.66-24.77,20.93-31.19,9.63-4.65,19.99-5.81,30.59-5.79,12.6.02,25.19,0,37.79,0Z"/>
      <path d="M815.96,1323.64c-2.39.02-4.77.03-7.16.04h0s-22.96,0-22.96,0h0c-13.08.06-26.16.02-39.24.02s-26.82.04-40.23-.03h0s-27.37,0-27.37,0h0c-2.05-.01-4.11-.02-6.17-.04-2.65-.02-3.63.72-3.54,4.02.21,7.28.13,14.57.03,21.85-.03,2.43.39,3.55,2.78,3.54,2.3,0,4.59,0,6.89,0h0s27.37,0,27.37,0h0c8.17-.01,16.34-.02,24.51-.03,0,11.61-.01,23.21-.01,34.82,0,19.77.07,39.54-.07,59.31-.02,3.39.78,4.64,4.37,4.52,7.91-.27,15.84-.16,23.76-.04,2.64.04,3.86-.5,3.85-3.55-.07-31.69-.07-63.37-.03-95.06,7.7,0,15.39.02,23.09.03h0s22.96,0,22.96,0h0c2.63,0,5.26,0,7.89.01,2.4,0,2.8-1.13,2.77-3.55-.09-7.28-.18-14.57.03-21.85.1-3.31-.9-4.04-3.54-4.01Z"/>
    </g>
    <path d="M473.09,1222.05c0-12.47-.13-21.08,0-33.55.03-3.3-.84-4.55-7.06-4.41-11.78.27-12.26.18-24.06.04-4.74-.06-6.88.52-6.85,3.38.13,13.54.04,27.08.06,40.62h0c.02,14.49.03,28.87.82,43.36.41,7.53,5.7,15.58,12.4,22.45,12.47,12.79,35.59,18.4,63.96,18.16,28.72-.24,49.48-7.11,61.96-19.85,7.69-7.85,10.62-16.24,10.68-24.89.09-13.08-.31-26.06.01-39.13v-.1c0-12.95.07-25.91.2-38.86.03-3.3-2.6-5.32-8.83-5.19-12.06.27-15.79.14-27.37,0-4.74-.06-3.56,4.2-3.53,7.06.12,12.41,0,4.37,0,16.77v17.66c0,10.98.61,10.46,0,30.02-.03.83-.56,10.7-.88,11.48-2.43,8.85-22.43,15.79-34.44,15.79s-33.34-6.5-35.32-15.79c-.21-.49-.88-3.9-.88-4.41l-.88-40.61Z"/>
    <path d="M958.71,1209.88c27,.08,75.71.17,102.71.2,3.74,0,6.77-1.53,6.77-3.44v-18.54c0-1.89-2.98-3.42-6.68-3.45-45.48-.27-90.98-.09-136.47-.23-6.59-.02-6.97,1.49-6.94,4.11.15,18.06.08,36.11.08,54.17,0,1.89,0,3.77,0,5.66h0s0,0,0,0c-.02,19.94.09,39.89-.08,59.83-.02,2.62.35,4.13,6.94,4.11,45.47-.15,90.94.04,136.4-.23,3.74-.02,6.75-1.58,6.75-3.48v-18.66c0-1.92-3.07-3.47-6.84-3.47-9.52,0-19.04-.03-28.56-.03-17.19,0-34.39-.11-51.58.06-22.5.22-27.08.46-26.91-2.43.36-6.25.22-10.53,0-16.78-.09-2.46-2.07-7.08,3.53-7.06,26.98.08,76.55.17,103.53.21,3.78,0,6.84-1.55,6.84-3.47v-17.38c0-1.9-3.03-3.44-6.77-3.43-9.54,0-19.09-.03-28.63-.03-17.19,0-56.01.12-73.2.28-5.63.05-5.46-3.29-5.3-6.18.36-6.25.22-8.76,0-15.01-.09-2.46-1.19-5.31,4.41-5.3Z"/>
    <path d="M276.84,1247.94c0-19.71.05-39.43-.05-59.14-.01-2.86.22-4.51,4.3-4.48,31.81.18,63.63-.11,95.44.39,7.4.12,15.2,1.77,22.04,4.37,27.79,10.54,36.57,41.07,18.37,62.7-1.93,2.3-2.05,3.58,0,5.82,6.3,6.86,8.7,15.14,9.12,23.79.43,8.99.1,18,.26,27,.04,2.41-.85,3.28-3.56,3.25-9.34-.1-18.68-.15-28.01.03-3.44.07-3.95-1.32-3.9-3.91.14-6.67.14-13.35,0-20.02-.06-2.93-.28-5.92-.95-8.78-1.44-6.21-6.1-9.48-14.48-9.63-14.69-.28-29.39-.19-44.08-.24-4.84-.02-9.69.18-14.52-.06-3.62-.18-4.75.93-4.69,4.19.19,11.33-.07,22.67.16,33.99.07,3.41-.9,4.61-4.88,4.49-8.46-.27-16.95-.25-25.41,0-3.95.11-5.31-.8-5.26-4.59.22-19.71.1-39.43.1-59.14ZM345.3,1239.57c8.81,0,17.62.11,26.42-.06,3.06-.06,6.23-.44,9.13-1.29,5.89-1.73,9.23-5.95,9.4-11.06.17-5.41-2.95-9.82-8.86-11.9-2.37-.83-5-1.44-7.52-1.46-19.34-.12-38.69-.02-58.03-.12-3.15-.02-3.73,1.21-3.68,3.65.13,6.2.18,12.41-.02,18.6-.09,2.87.98,3.74,4.15,3.69,9.67-.16,19.34-.06,29.01-.06Z"/>
    <path d="M1077.17,1247.94c0-19.71.05-39.43-.05-59.14-.01-2.86.22-4.51,4.3-4.48,31.81.18,63.63-.11,95.44.39,7.4.12,15.2,1.77,22.04,4.37,27.79,10.54,36.57,41.07,18.37,62.7-1.93,2.3-2.05,3.58,0,5.82,6.3,6.86,8.7,15.14,9.12,23.79.43,8.99.1,18,.26,27,.04,2.41-.85,3.28-3.56,3.25-9.34-.1-18.68-.15-28.01.03-3.44.07-3.95-1.32-3.9-3.91.14-6.67.14-13.35,0-20.02-.06-2.93-.28-5.92-.95-8.78-1.44-6.21-6.1-9.48-14.48-9.63-14.69-.28-29.39-.19-44.08-.24-4.84-.02-9.69.18-14.52-.06-3.62-.18-4.75.93-4.69,4.19.19,11.33-.07,22.67.16,33.99.07,3.41-.9,4.61-4.88,4.49-8.46-.27-16.95-.25-25.41,0-3.95.11-5.31-.8-5.26-4.59.22-19.71.1-39.43.1-59.14ZM1145.64,1239.57c8.81,0,17.62.11,26.42-.06,3.06-.06,6.23-.44,9.13-1.29,5.89-1.73,9.23-5.95,9.39-11.06.17-5.41-2.95-9.82-8.86-11.9-2.37-.83-5-1.44-7.52-1.46-19.34-.12-38.69-.02-58.03-.12-3.15-.02-3.73,1.21-3.68,3.65.13,6.2.18,12.41-.02,18.6-.09,2.87.98,3.74,4.15,3.69,9.67-.16,19.34-.06,29.01-.06Z"/>
    <path d="M737.53,1250.22c-.76-.83-1.23-1.51-1.41-2.15h0c.18-.65.65-1.33,1.41-2.15,18.24-19.84,9.44-47.83-18.43-57.5-6.86-2.38-14.68-3.9-22.1-4.01-31.89-.46-63.8-.19-95.7-.36-4.09-.02-4.32,1.49-4.31,4.11.1,18.08.05,36.16.05,54.24,0,1.89,0,3.78,0,5.67h0c0,1.89,0,3.78,0,5.67,0,18.08.05,36.16-.05,54.24-.01,2.62.22,4.13,4.31,4.11,31.9-.17,63.81.1,95.7-.36,7.42-.11,15.24-1.63,22.1-4.01,27.87-9.66,36.67-37.66,18.43-57.5ZM632.47,1214.33c-.05-2.24.53-3.36,3.69-3.35,19.4.09,38.79,0,58.19.11,2.53.01,5.17.57,7.54,1.34,5.93,1.91,9.06,5.95,8.89,10.91-.17,4.69-3.51,8.56-9.42,10.14-2.9.78-6.09,1.13-9.16,1.18-8.83.15-17.66.05-26.5.05-9.7,0-19.4-.09-29.09.05-3.17.05-4.25-.75-4.16-3.38.2-5.68.15-11.37.02-17.06ZM701.89,1283.7c-2.37.76-5.02,1.32-7.54,1.34-19.4.11-38.79.02-58.19.11-3.16.02-3.74-1.11-3.69-3.35.13-5.69.18-11.38-.02-17.06-.09-2.63.98-3.43,4.16-3.38,9.7.15,19.4.05,29.09.05,8.83,0,17.67-.1,26.5.05,3.07.05,6.25.4,9.16,1.18,5.91,1.59,9.26,5.45,9.42,10.14.18,4.96-2.96,9-8.89,10.91Z"/>
    <path d="M899.99,1250.42c-.76-.83-1.23-1.51-1.41-2.15h0c.18-.65.65-1.33,1.41-2.15,18.24-19.84,9.44-47.83-18.43-57.5-6.86-2.38-14.68-3.9-22.1-4.01-31.89-.46-63.8-.19-95.7-.36-4.09-.02-4.32,1.49-4.31,4.11.1,18.08.05,36.16.05,54.24,0,1.89,0,3.78,0,5.67h0c0,1.89,0,3.78,0,5.67,0,18.08.05,36.16-.05,54.24-.01,2.62.22,4.13,4.31,4.11,31.9-.17,63.81.1,95.7-.36,7.42-.11,15.24-1.63,22.1-4.01,27.87-9.66,36.67-37.66,18.43-57.5ZM794.93,1214.53c-.05-2.24.53-3.36,3.69-3.35,19.4.09,38.79,0,58.19.11,2.53.01,5.17.57,7.54,1.34,5.93,1.91,9.06,5.95,8.89,10.91-.17,4.69-3.51,8.56-9.42,10.14-2.9.78-6.09,1.13-9.16,1.18-8.83.15-17.66.05-26.5.05-9.7,0-19.4-.09-29.09.05-3.17.05-4.25-.75-4.16-3.38.2-5.68.15-11.37.02-17.06ZM864.35,1283.9c-2.37.76-5.02,1.32-7.54,1.34-19.4.11-38.79.02-58.19.11-3.16.02-3.74-1.11-3.69-3.35.13-5.69.18-11.38-.02-17.06-.09-2.63.98-3.43,4.16-3.38,9.7.15,19.4.05,29.09.05,8.83,0,17.67-.1,26.5.05,3.07.05,6.25.4,9.16,1.18,5.91,1.59,9.26,5.45,9.42,10.14.18,4.96-2.96,9-8.89,10.91Z"/>
  </g>
</svg>
